<svg xmlns="http://www.w3.org/2000/svg" xmlns:xlink="http://www.w3.org/1999/xlink" width="500" zoomAndPan="magnify" viewBox="0 0 375 374.999991" height="500" preserveAspectRatio="xMidYMid meet" version="1.0"><defs><g/></defs><g fill="#075fe4" fill-opacity="1"><g transform="translate(2.507193, 266.275827)"><g><path d="M 82.351562 -22.195312 C 85.085938 -22.519531 87.660156 -23.484375 90.074219 -24.929688 C 94.898438 -27.988281 99.082031 -33.617188 98.917969 -41.820312 C 97.792969 -48.09375 92.808594 -54.847656 87.179688 -59.835938 L 50.023438 -92.003906 L 88.949219 -126.261719 C 94.253906 -130.929688 99.242188 -137.683594 100.367188 -144.117188 C 101.011719 -149.90625 98.4375 -155.375 94.578125 -159.074219 C 90.714844 -162.773438 85.410156 -165.027344 80.261719 -164.382812 C 72.378906 -162.613281 65.464844 -156.019531 59.191406 -149.746094 L 18.335938 -109.214844 C 13.671875 -104.710938 9.167969 -98.597656 9.167969 -92.003906 C 9.167969 -86.214844 13.1875 -79.941406 18.175781 -75.277344 L 58.066406 -35.546875 C 59.191406 -34.261719 60.636719 -32.8125 62.246094 -31.363281 C 65.304688 -28.308594 68.519531 -25.414062 71.738281 -23.484375 C 74.792969 -21.554688 78.332031 -20.910156 82.351562 -22.195312 Z M 82.351562 -22.195312 "/></g></g></g><g fill="#075fe4" fill-opacity="1"><g transform="translate(112.678035, 266.275827)"><g><path d="M 124.171875 -205.398438 C 120.152344 -205.558594 116.613281 -204.753906 113.554688 -202.664062 C 109.695312 -200.894531 106.15625 -197.519531 104.226562 -193.175781 C 94.09375 -171.460938 82.351562 -145.886719 70.609375 -119.992188 C 58.871094 -94.09375 46.964844 -68.039062 36.511719 -45.519531 C 26.058594 -22.839844 17.050781 -3.859375 10.777344 7.882812 C 8.042969 13.1875 9.167969 19.300781 12.546875 23.964844 C 15.921875 28.628906 21.390625 32.167969 27.183594 32.652344 C 36.191406 33.777344 43.105469 28.148438 46.804688 20.265625 C 61.925781 -12.386719 77.042969 -44.714844 92.164062 -77.042969 C 107.121094 -109.214844 122.242188 -141.542969 137.523438 -174.195312 C 138.164062 -176.125 138.96875 -178.378906 140.097656 -180.949219 C 141.0625 -183.363281 141.542969 -185.613281 141.542969 -187.382812 C 141.542969 -191.40625 139.933594 -195.910156 137.039062 -199.285156 C 134.144531 -202.503906 129.480469 -204.917969 124.171875 -205.398438 Z M 124.171875 -205.398438 "/></g></g></g><g fill="#075fe4" fill-opacity="1"><g transform="translate(262.574723, 266.275827)"><g><path d="M 34.902344 -22.035156 C 38.121094 -23.160156 41.175781 -25.414062 44.230469 -27.988281 C 47.289062 -30.5625 50.023438 -33.132812 52.433594 -35.546875 L 92.164062 -75.277344 C 96.828125 -79.941406 101.171875 -86.214844 101.171875 -92.003906 C 100.6875 -98.597656 96.347656 -104.226562 92.003906 -109.214844 L 51.308594 -149.746094 C 45.035156 -156.019531 37.476562 -162.453125 29.917969 -164.382812 C 25.414062 -164.542969 21.230469 -163.097656 17.691406 -160.683594 C 14.15625 -158.109375 11.421875 -154.410156 10.617188 -150.070312 C 10.132812 -147.976562 9.8125 -146.046875 9.972656 -144.117188 C 11.097656 -137.523438 15.761719 -130.929688 21.390625 -126.261719 L 60.316406 -92.003906 L 23.160156 -59.835938 C 17.53125 -54.847656 12.546875 -48.09375 11.421875 -41.820312 C 11.257812 -37.796875 12.386719 -34.261719 14.476562 -31.042969 C 18.335938 -23.324219 26.699219 -19.945312 34.902344 -22.035156 Z M 34.902344 -22.035156 "/></g></g></g></svg>