<svg xmlns="http://www.w3.org/2000/svg" xmlns:xlink="http://www.w3.org/1999/xlink" width="272" zoomAndPan="magnify" viewBox="0 0 204 62.999997" height="84" preserveAspectRatio="xMidYMid meet" version="1.0"><defs><g/></defs><g fill="#075fe4" fill-opacity="1"><g transform="translate(4.150511, 44.734338)"><g><path d="M 13.835938 -3.730469 C 14.292969 -3.78125 14.726562 -3.945312 15.132812 -4.1875 C 15.941406 -4.703125 16.644531 -5.648438 16.617188 -7.027344 C 16.429688 -8.078125 15.589844 -9.214844 14.644531 -10.050781 L 8.402344 -15.457031 L 14.941406 -21.210938 C 15.835938 -21.996094 16.671875 -23.128906 16.863281 -24.210938 C 16.96875 -25.183594 16.539062 -26.101562 15.890625 -26.726562 C 15.242188 -27.347656 14.347656 -27.722656 13.484375 -27.617188 C 12.160156 -27.320312 10.996094 -26.210938 9.945312 -25.15625 L 3.082031 -18.347656 C 2.296875 -17.589844 1.539062 -16.566406 1.539062 -15.457031 C 1.539062 -14.484375 2.214844 -13.429688 3.054688 -12.644531 L 9.753906 -5.972656 C 9.945312 -5.753906 10.1875 -5.511719 10.457031 -5.269531 C 10.972656 -4.757812 11.511719 -4.269531 12.050781 -3.945312 C 12.566406 -3.621094 13.160156 -3.511719 13.835938 -3.730469 Z M 13.835938 -3.730469 "/></g></g></g><g fill="#075fe4" fill-opacity="1"><g transform="translate(22.659212, 44.734338)"><g><path d="M 20.859375 -34.507812 C 20.183594 -34.535156 19.589844 -34.398438 19.078125 -34.046875 C 18.429688 -33.75 17.835938 -33.183594 17.511719 -32.453125 C 15.808594 -28.804688 13.835938 -24.507812 11.863281 -20.160156 C 9.890625 -15.808594 7.890625 -11.429688 6.132812 -7.648438 C 4.378906 -3.835938 2.863281 -0.648438 1.808594 1.324219 C 1.351562 2.214844 1.539062 3.242188 2.109375 4.027344 C 2.675781 4.808594 3.59375 5.40625 4.566406 5.484375 C 6.078125 5.675781 7.242188 4.730469 7.863281 3.40625 C 10.402344 -2.082031 12.945312 -7.511719 15.484375 -12.945312 C 17.996094 -18.347656 20.535156 -23.78125 23.105469 -29.265625 C 23.210938 -29.589844 23.347656 -29.96875 23.535156 -30.398438 C 23.699219 -30.804688 23.78125 -31.183594 23.78125 -31.480469 C 23.78125 -32.15625 23.507812 -32.914062 23.023438 -33.480469 C 22.535156 -34.019531 21.753906 -34.425781 20.859375 -34.507812 Z M 20.859375 -34.507812 "/></g></g></g><g fill="#075fe4" fill-opacity="1"><g transform="translate(47.841856, 44.734338)"><g><path d="M 5.863281 -3.703125 C 6.402344 -3.890625 6.917969 -4.269531 7.429688 -4.703125 C 7.945312 -5.132812 8.402344 -5.566406 8.808594 -5.972656 L 15.484375 -12.644531 C 16.265625 -13.429688 16.996094 -14.484375 16.996094 -15.457031 C 16.914062 -16.566406 16.1875 -17.511719 15.457031 -18.347656 L 8.621094 -25.15625 C 7.566406 -26.210938 6.296875 -27.292969 5.027344 -27.617188 C 4.269531 -27.644531 3.566406 -27.398438 2.972656 -26.996094 C 2.378906 -26.5625 1.917969 -25.941406 1.785156 -25.210938 C 1.703125 -24.859375 1.648438 -24.535156 1.675781 -24.210938 C 1.863281 -23.105469 2.648438 -21.996094 3.59375 -21.210938 L 10.132812 -15.457031 L 3.890625 -10.050781 C 2.945312 -9.214844 2.109375 -8.078125 1.917969 -7.027344 C 1.890625 -6.351562 2.082031 -5.753906 2.433594 -5.214844 C 3.082031 -3.917969 4.484375 -3.351562 5.863281 -3.703125 Z M 5.863281 -3.703125 "/></g></g></g><g fill="#075fe4" fill-opacity="1"><g transform="translate(66.296515, 44.734338)"><g/></g></g><g fill="#075fe4" fill-opacity="1"><g transform="translate(78.698694, 44.734338)"><g><path d="M 27.996094 -3.214844 C 27.996094 -4.160156 27.617188 -4.945312 27.023438 -5.511719 C 26.425781 -6.054688 25.589844 -6.378906 24.804688 -6.378906 L 9.945312 -6.378906 L 9.945312 -30.914062 C 9.945312 -32.425781 9.457031 -33.398438 8.699219 -33.964844 C 7.917969 -34.507812 6.808594 -34.722656 5.511719 -34.722656 C 4.621094 -34.722656 4.054688 -34.589844 3.730469 -34.371094 C 3.40625 -34.15625 3.296875 -33.832031 3.296875 -33.425781 C 3.296875 -33.101562 3.351562 -32.777344 3.433594 -32.425781 C 3.511719 -32.074219 3.566406 -31.695312 3.59375 -31.34375 L 3.59375 -3.730469 C 3.59375 -2.675781 3.972656 -1.757812 4.621094 -1.109375 C 5.242188 -0.460938 6.105469 -0.0273438 7.160156 0 L 24.996094 0 C 25.832031 0 26.5625 -0.324219 27.101562 -0.890625 C 27.644531 -1.460938 27.996094 -2.242188 27.996094 -3.214844 Z M 27.996094 -3.214844 "/></g></g></g><g fill="#075fe4" fill-opacity="1"><g transform="translate(108.150495, 44.734338)"><g><path d="M 1.648438 -13.078125 C 1.648438 -9.402344 3.160156 -6.054688 5.59375 -3.648438 C 8.027344 -1.242188 11.320312 0.269531 14.996094 0.269531 C 18.671875 0.269531 21.996094 -1.242188 24.429688 -3.648438 C 26.859375 -6.054688 28.347656 -9.402344 28.347656 -13.078125 C 28.347656 -16.753906 26.859375 -20.078125 24.429688 -22.480469 C 21.996094 -24.886719 18.671875 -26.402344 14.996094 -26.402344 C 11.320312 -26.402344 8.027344 -24.886719 5.59375 -22.480469 C 3.160156 -20.078125 1.648438 -16.753906 1.648438 -13.078125 Z M 8.078125 -13.078125 C 8.078125 -15.023438 8.835938 -16.835938 10.078125 -18.132812 C 11.320312 -19.429688 13.050781 -20.238281 14.996094 -20.238281 C 16.941406 -20.238281 18.671875 -19.429688 19.914062 -18.132812 C 21.15625 -16.835938 21.914062 -15.023438 21.914062 -13.078125 C 21.914062 -11.105469 21.15625 -9.296875 19.914062 -8 C 18.671875 -6.703125 16.941406 -5.890625 14.996094 -5.890625 C 13.050781 -5.890625 11.320312 -6.703125 10.078125 -8 C 8.835938 -9.296875 8.078125 -11.105469 8.078125 -13.078125 Z M 8.078125 -13.078125 "/></g></g></g><g fill="#075fe4" fill-opacity="1"><g transform="translate(138.142694, 44.734338)"><g><path d="M 16.132812 4.917969 C 15.292969 4.945312 14.566406 4.863281 13.941406 4.730469 C 13.320312 4.59375 12.699219 4.457031 12.023438 4.378906 C 11.269531 4.351562 10.539062 4.539062 10.023438 4.972656 C 9.484375 5.40625 9.132812 6.078125 9.132812 6.863281 C 9.132812 8.160156 9.972656 9.105469 11.296875 9.726562 C 12.621094 10.375 14.402344 10.648438 16.320312 10.648438 C 19.429688 10.648438 22.429688 9.566406 24.671875 7.402344 C 26.914062 5.242188 28.375 2 28.375 -2.296875 L 28.375 -22.914062 C 28.375 -23.671875 28.292969 -24.535156 28.023438 -25.210938 C 27.75 -25.859375 27.265625 -26.347656 26.535156 -26.347656 C 25.050781 -26.347656 24.128906 -24.699219 23.886719 -21.644531 C 23.050781 -22.726562 21.726562 -23.941406 20.050781 -24.832031 C 18.375 -25.726562 16.347656 -26.375 14.1875 -26.375 C 10.511719 -26.375 7.402344 -24.859375 5.1875 -22.457031 C 2.972656 -20.050781 1.675781 -16.726562 1.675781 -13.050781 C 1.675781 -9.375 2.972656 -6.027344 5.1875 -3.621094 C 7.402344 -1.214844 10.511719 0.296875 14.1875 0.296875 C 16.050781 0.296875 17.886719 -0.214844 19.347656 -1.054688 C 20.808594 -1.890625 21.886719 -2.945312 22.347656 -4.105469 C 22.699219 1.808594 20.753906 4.78125 16.132812 4.917969 Z M 8.132812 -13.050781 C 8.132812 -14.996094 8.78125 -16.808594 9.972656 -18.105469 C 11.132812 -19.402344 12.78125 -20.210938 14.726562 -20.210938 C 16.644531 -20.210938 18.457031 -19.375 19.78125 -18.078125 C 21.078125 -16.753906 21.941406 -14.96875 21.941406 -13.050781 C 21.941406 -11.078125 21.105469 -9.269531 19.808594 -7.972656 C 18.484375 -6.675781 16.671875 -5.863281 14.726562 -5.863281 C 12.78125 -5.863281 11.132812 -6.675781 9.972656 -7.972656 C 8.78125 -9.269531 8.132812 -11.078125 8.132812 -13.050781 Z M 8.132812 -13.050781 "/></g></g></g><g fill="#075fe4" fill-opacity="1"><g transform="translate(169.864172, 44.734338)"><g><path d="M 1.648438 -13.078125 C 1.648438 -9.402344 3.160156 -6.054688 5.59375 -3.648438 C 8.027344 -1.242188 11.320312 0.269531 14.996094 0.269531 C 18.671875 0.269531 21.996094 -1.242188 24.429688 -3.648438 C 26.859375 -6.054688 28.347656 -9.402344 28.347656 -13.078125 C 28.347656 -16.753906 26.859375 -20.078125 24.429688 -22.480469 C 21.996094 -24.886719 18.671875 -26.402344 14.996094 -26.402344 C 11.320312 -26.402344 8.027344 -24.886719 5.59375 -22.480469 C 3.160156 -20.078125 1.648438 -16.753906 1.648438 -13.078125 Z M 8.078125 -13.078125 C 8.078125 -15.023438 8.835938 -16.835938 10.078125 -18.132812 C 11.320312 -19.429688 13.050781 -20.238281 14.996094 -20.238281 C 16.941406 -20.238281 18.671875 -19.429688 19.914062 -18.132812 C 21.15625 -16.835938 21.914062 -15.023438 21.914062 -13.078125 C 21.914062 -11.105469 21.15625 -9.296875 19.914062 -8 C 18.671875 -6.703125 16.941406 -5.890625 14.996094 -5.890625 C 13.050781 -5.890625 11.320312 -6.703125 10.078125 -8 C 8.835938 -9.296875 8.078125 -11.105469 8.078125 -13.078125 Z M 8.078125 -13.078125 "/></g></g></g></svg>